<svg xmlns="http://www.w3.org/2000/svg" width="384.872" height="142.192" viewBox="0 0 384.872 142.192">
  <g id="logo" transform="translate(-1.041 -14.033)">
    <path id="Subtraction_8" data-name="Subtraction 8" d="M9311.521,4260.169c-1.873,0-3.7-.019-5.436-.056-.08,0-.164,0-.246,0s-.164,0-.248,0H9115.063a71.066,71.066,0,1,1,0-142.131h127.72a71,71,0,0,1,71.067,71.063v44l11.271,26.853c-.16.008-.322.013-.487.019l-.14,0h-.028l-.163.007-.162,0C9319.549,4260.089,9315.422,4260.169,9311.521,4260.169ZM9206.4,4148.713a9.707,9.707,0,0,0-9.7,9.7v61.538a9.707,9.707,0,0,0,9.7,9.7h9.476a.22.22,0,0,0,.221-.22v-71.014A9.707,9.707,0,0,0,9206.4,4148.713Zm53.584,16.108a35.658,35.658,0,0,0-13.01,2.347,32.03,32.03,0,0,0-10.48,6.56,30.007,30.007,0,0,0-6.98,10.239,33.968,33.968,0,0,0-2.535,13.255,35.176,35.176,0,0,0,2.535,13.73,29.068,29.068,0,0,0,17.222,16.494,36.5,36.5,0,0,0,12.645,2.172,58.8,58.8,0,0,0,17.824-2.651,44.6,44.6,0,0,0,5.609-2.167c1.481-.729,2.555-1.3,3.189-1.692l-5.911-11.823a1.8,1.8,0,0,0-1.619-1,1.779,1.779,0,0,0-.754.166.041.041,0,0,1-.023.009,26.928,26.928,0,0,1-3.377,1.208c-1.3.39-2.881.765-4.818,1.146a30.749,30.749,0,0,1-5.9.543,29.213,29.213,0,0,1-6.991-.726,16.015,16.015,0,0,1-4.76-1.926,10.639,10.639,0,0,1-2.886-2.593,6.458,6.458,0,0,1-1.266-2.827h4.433a95.983,95.983,0,0,0,17.435-1.315,33.2,33.2,0,0,0,10.962-3.8,13.679,13.679,0,0,0,5.6-6.02,19.855,19.855,0,0,0,1.566-8.011,18.217,18.217,0,0,0-1.868-7.95,21.061,21.061,0,0,0-5.422-6.869,26.613,26.613,0,0,0-8.732-4.758A36.473,36.473,0,0,0,9259.983,4164.821Zm-101.417,0a35.673,35.673,0,0,0-13.01,2.347,32.113,32.113,0,0,0-10.48,6.558,29.993,29.993,0,0,0-6.979,10.241,33.981,33.981,0,0,0-2.534,13.255,35.2,35.2,0,0,0,2.534,13.73,29.065,29.065,0,0,0,17.22,16.494,36.529,36.529,0,0,0,12.647,2.172,58.961,58.961,0,0,0,9.939-.784,60.68,60.68,0,0,0,7.889-1.868,44.32,44.32,0,0,0,5.6-2.167c1.5-.736,2.548-1.29,3.192-1.692l-5.912-11.823a1.807,1.807,0,0,0-2.373-.833l-.01,0-.007,0-.007,0a26.284,26.284,0,0,1-3.379,1.206c-1.374.408-2.949.784-4.816,1.149a30.749,30.749,0,0,1-5.9.543,29.409,29.409,0,0,1-6.99-.726,16.028,16.028,0,0,1-4.761-1.926,10.93,10.93,0,0,1-2.888-2.593,6.536,6.536,0,0,1-1.264-2.83h4.486a95.761,95.761,0,0,0,17.386-1.312,33.183,33.183,0,0,0,10.96-3.8,13.644,13.644,0,0,0,5.6-6.02,19.723,19.723,0,0,0,1.568-8.011,18.234,18.234,0,0,0-1.868-7.952,21.094,21.094,0,0,0-5.418-6.867,26.689,26.689,0,0,0-8.738-4.76A36.576,36.576,0,0,0,9158.566,4164.821Zm-71.426-16.382a12.714,12.714,0,0,0-7.347,1.926c-.064.043-.127.1-.187.146l-.006,0c-.039.032-.077.063-.115.093a7.968,7.968,0,0,0-2.1,3.34,11.537,11.537,0,0,0-.367,3.038v50.707c0,6.632,2.147,12,6.382,15.966a21.085,21.085,0,0,0,8.647,4.788,32.77,32.77,0,0,0,9.064,1.172,36.07,36.07,0,0,0,7.592-.786,47.585,47.585,0,0,0,6.5-1.868,32.17,32.17,0,0,0,4.941-2.289,19.881,19.881,0,0,0,3.133-2.165l-11.568-11.491a17.828,17.828,0,0,1-6.139,1.018,18.784,18.784,0,0,1-3.318-.292,6.67,6.67,0,0,1-2.888-1.271,7.53,7.53,0,0,1-2.106-2.588,9.616,9.616,0,0,1-.845-4.4v-18.907h21.76v-6.913a11.335,11.335,0,0,0-11.322-11.323H9096.42v-9.785s0,0,0,0v-.229a7.775,7.775,0,0,0-7.323-7.819C9088.474,4148.463,9087.816,4148.439,9087.141,4148.439Zm159.6,44.328h0a16.49,16.49,0,0,1,.964-4.759,12.468,12.468,0,0,1,2.467-4.151,12.792,12.792,0,0,1,4.032-2.956,13.3,13.3,0,0,1,5.669-1.137c3.04,0,5.35.627,6.863,1.863a5.594,5.594,0,0,1,2.289,4.4,6.521,6.521,0,0,1-.486,2.406,4.66,4.66,0,0,1-2.647,2.172,25.532,25.532,0,0,1-6.628,1.563A98.11,98.11,0,0,1,9246.74,4192.767Zm-101.422,0h0a16.305,16.305,0,0,1,.965-4.759,12.463,12.463,0,0,1,2.467-4.151,12.838,12.838,0,0,1,4.034-2.956,13.278,13.278,0,0,1,5.666-1.137c3.041,0,5.35.627,6.861,1.863a5.574,5.574,0,0,1,2.289,4.4,6.531,6.531,0,0,1-.479,2.406,4.694,4.694,0,0,1-2.651,2.172,25.8,25.8,0,0,1-6.628,1.563A97.708,97.708,0,0,1,9145.318,4192.767Z" transform="translate(-9042.958 -4103.944)" fill="#fff"/>
    <path id="Path_2" data-name="Path 2" d="M90.245,35.187a9.558,9.558,0,0,1,2.77-6.956,9.277,9.277,0,0,1,6.9-2.824,9.644,9.644,0,0,1,9.779,9.779,9.278,9.278,0,0,1-2.824,6.9,9.541,9.541,0,0,1-6.956,2.769,9.464,9.464,0,0,1-9.671-9.671Z" transform="translate(201.954 25.752)" fill="#fff"/>
    <path id="Path_3" data-name="Path 3" d="M100.111,54.819a24.92,24.92,0,0,1,2.419-11.181,22.952,22.952,0,0,1,6.645-8.157,30.267,30.267,0,0,1,9.792-4.956,42.96,42.96,0,0,1,23.869,0,29.493,29.493,0,0,1,9.792,4.956,23.381,23.381,0,0,1,6.587,8.157,24.919,24.919,0,0,1,2.415,11.181V92.166h-9.877a9.581,9.581,0,0,1-9.583-9.583V59.289q0-6.4-2.9-9.49t-8.336-3.083q-11.363,0-11.365,12.568V92.161h-9.8a9.66,9.66,0,0,1-9.661-9.662V54.819Z" transform="translate(224.283 33.508)" fill="#fff"/>
    <path id="Path_4" data-name="Path 4" d="M109.426,82.816H99.95a9.7,9.7,0,0,1-9.7-9.7V42.66a9.7,9.7,0,1,1,19.392,0V82.6A.22.22,0,0,1,109.426,82.816Z" transform="translate(201.975 42.858)" fill="#fff"/>
    <path id="Path_8" data-name="Path 8" d="M13.368,24.034a6.217,6.217,0,0,0-2.1,3.338A7.925,7.925,0,0,1,13.368,24.034Z" transform="translate(23.158 22.641)" fill="#fff"/>
    <path id="Path_9" data-name="Path 9" d="M11.159,27.439V28.1a11.677,11.677,0,0,1,.368-3.039A7.79,7.79,0,0,0,11.159,27.439Z" transform="translate(22.906 24.957)" fill="#fff"/>
  </g>
</svg>
