<svg xmlns="http://www.w3.org/2000/svg" width="23.247" height="20.5" viewBox="0 0 23.247 20.5">
  <path id="Path_184" data-name="Path 184" d="M-1883.214-1048.968q-3.082,0-6.164,0a9.922,9.922,0,0,1-3.889-.792,9.873,9.873,0,0,1-3.255-2.191,10.059,10.059,0,0,1-2.884-5.752,10.1,10.1,0,0,1,1.053-6.27,10.133,10.133,0,0,1,4.04-4.163,9.671,9.671,0,0,1,3.665-1.228,17.773,17.773,0,0,1,3.621-.021,9.813,9.813,0,0,1,5.168,2.047,10.073,10.073,0,0,1,3.179,4.091,10.372,10.372,0,0,1,.825,4.26c-.016,1.938,0,3.876-.006,5.815a1.362,1.362,0,0,0,.109.547q.7,1.657,1.394,3.318c.14.333.14.335-.233.336h-6.622Zm-3.873-10.881c.449,0,.9-.009,1.346,0,.193.005.249-.064.24-.248a6.332,6.332,0,0,1,0-.753,1.632,1.632,0,0,0-1.658-1.643c-.386.01-.772-.011-1.157.006-.237.011-.335-.045-.319-.306.024-.385.012-.772,0-1.157a1.04,1.04,0,0,0-.507-.922,1.832,1.832,0,0,0-1.655-.054.942.942,0,0,0-.639.961c0,2.594-.026,5.188.016,7.781a2.669,2.669,0,0,0,1.658,2.474,4.514,4.514,0,0,0,2.966.232,5.239,5.239,0,0,0,1.854-.755c.157-.107.158-.185.03-.311-.461-.453-.916-.911-1.371-1.37a.252.252,0,0,0-.283-.1,2.814,2.814,0,0,1-.984.092,1.039,1.039,0,0,1-1.078-1.039c-.015-.9,0-1.795-.008-2.692,0-.179.078-.205.228-.2C-1887.967-1059.845-1887.527-1059.849-1887.088-1059.849Z" transform="translate(1899.52 1069.467)" fill="#3d70b2"/>
</svg>