<svg xmlns="http://www.w3.org/2000/svg" width="384.872" height="142.192" viewBox="0 0 384.872 142.192">
  <g id="Group_2" data-name="Group 2" transform="translate(-152 -168)">
    <g id="Group_1" data-name="Group 1" transform="translate(188.5 -213.404)">
      <g id="logo" transform="translate(-37.541 367.371)">
        <path id="Path_1" data-name="Path 1" d="M270.891,129.091V85.1a71.064,71.064,0,0,0-71.068-71.063H72.1a71.065,71.065,0,0,0,0,142.131H262.632c.166,0,.333,0,.495,0,6.015.128,12.034.024,18.054-.191.328-.01.657-.02.98-.034Z" transform="translate(0 0)" fill="#3d70b2"/>
        <path id="Path_2" data-name="Path 2" d="M90.245,35.187a9.558,9.558,0,0,1,2.77-6.956,9.277,9.277,0,0,1,6.9-2.824,9.644,9.644,0,0,1,9.779,9.779,9.278,9.278,0,0,1-2.824,6.9,9.541,9.541,0,0,1-6.956,2.769,9.464,9.464,0,0,1-9.671-9.671Z" transform="translate(201.954 25.752)" fill="#3d70b2"/>
        <path id="Path_3" data-name="Path 3" d="M100.111,54.819a24.92,24.92,0,0,1,2.419-11.181,22.952,22.952,0,0,1,6.645-8.157,30.267,30.267,0,0,1,9.792-4.956,42.96,42.96,0,0,1,23.869,0,29.493,29.493,0,0,1,9.792,4.956,23.381,23.381,0,0,1,6.587,8.157,24.919,24.919,0,0,1,2.415,11.181V92.166h-9.877a9.581,9.581,0,0,1-9.583-9.583V59.289q0-6.4-2.9-9.49t-8.336-3.083q-11.363,0-11.365,12.568V92.161h-9.8a9.66,9.66,0,0,1-9.661-9.662V54.819Z" transform="translate(224.283 33.508)" fill="#3d70b2"/>
        <path id="Path_4" data-name="Path 4" d="M109.426,82.816H99.95a9.7,9.7,0,0,1-9.7-9.7V42.66a9.7,9.7,0,1,1,19.392,0V82.6A.22.22,0,0,1,109.426,82.816Z" transform="translate(201.975 42.858)" fill="#3d70b2"/>
        <path id="Path_5" data-name="Path 5" d="M68.613,67.536a32.95,32.95,0,0,0,10.961-3.8,13.555,13.555,0,0,0,5.6-6.02,19.659,19.659,0,0,0,1.569-8.01,18.1,18.1,0,0,0-1.868-7.951,20.964,20.964,0,0,0-5.417-6.867,26.558,26.558,0,0,0-8.74-4.76,36.34,36.34,0,0,0-11.681-1.745,35.538,35.538,0,0,0-13.009,2.348,31.955,31.955,0,0,0-10.481,6.559,29.824,29.824,0,0,0-6.98,10.24A33.837,33.837,0,0,0,26.03,60.786a35.08,35.08,0,0,0,2.534,13.73,29.068,29.068,0,0,0,17.221,16.5,36.39,36.39,0,0,0,12.647,2.172,58.624,58.624,0,0,0,9.941-.784,59.863,59.863,0,0,0,7.887-1.868,44.257,44.257,0,0,0,5.6-2.167c1.48-.726,2.549-1.289,3.191-1.691L79.137,74.85a1.808,1.808,0,0,0-2.372-.833.081.081,0,0,1-.025.01,26.6,26.6,0,0,1-3.377,1.206c-1.368.407-2.966.784-4.819,1.147a30.649,30.649,0,0,1-5.9.544,29.3,29.3,0,0,1-6.99-.726,15.955,15.955,0,0,1-4.76-1.926,10.766,10.766,0,0,1-2.887-2.593A6.466,6.466,0,0,1,46.74,68.85h4.211A96.1,96.1,0,0,0,68.613,67.536ZM45.785,56.331a16.353,16.353,0,0,1,.965-4.76,12.429,12.429,0,0,1,2.466-4.152,12.711,12.711,0,0,1,4.035-2.956,13.207,13.207,0,0,1,5.667-1.137c3.044,0,5.338.618,6.862,1.863a5.553,5.553,0,0,1,2.289,4.4,6.524,6.524,0,0,1-.48,2.407,4.7,4.7,0,0,1-2.652,2.172,25.529,25.529,0,0,1-6.627,1.564A98.413,98.413,0,0,1,45.785,56.331Z" transform="translate(56.574 32.491)" fill="#fff"/>
        <path id="Path_6" data-name="Path 6" d="M99.685,67.536a32.95,32.95,0,0,0,10.961-3.8,13.583,13.583,0,0,0,5.6-6.02,19.739,19.739,0,0,0,1.564-8.01,18.1,18.1,0,0,0-1.868-7.951,20.913,20.913,0,0,0-5.422-6.867,26.456,26.456,0,0,0-8.73-4.76,36.34,36.34,0,0,0-11.681-1.745A35.539,35.539,0,0,0,77.1,30.733a31.9,31.9,0,0,0-10.48,6.559,29.824,29.824,0,0,0-6.98,10.24A33.837,33.837,0,0,0,57.1,60.786a35.08,35.08,0,0,0,2.534,13.73,29.069,29.069,0,0,0,17.22,16.5A36.393,36.393,0,0,0,89.5,93.183a58.523,58.523,0,0,0,9.936-.784,59.1,59.1,0,0,0,7.887-1.868,44.42,44.42,0,0,0,5.608-2.167q2.221-1.088,3.191-1.691L110.214,74.85a1.808,1.808,0,0,0-2.373-.833.082.082,0,0,1-.024.01,26.6,26.6,0,0,1-3.377,1.206c-1.368.407-2.976.784-4.819,1.147a30.653,30.653,0,0,1-5.9.544,29.3,29.3,0,0,1-6.99-.726,15.962,15.962,0,0,1-4.76-1.926,10.7,10.7,0,0,1-2.887-2.593,6.462,6.462,0,0,1-1.265-2.828h4.211A96.087,96.087,0,0,0,99.685,67.536ZM76.861,56.331a16.364,16.364,0,0,1,.966-4.76,12.429,12.429,0,0,1,2.466-4.152,12.706,12.706,0,0,1,4.034-2.956,13.207,13.207,0,0,1,5.667-1.137q4.574,0,6.863,1.863a5.567,5.567,0,0,1,2.289,4.4,6.433,6.433,0,0,1-.485,2.407,4.648,4.648,0,0,1-2.647,2.172,25.532,25.532,0,0,1-6.627,1.564A98.419,98.419,0,0,1,76.861,56.331Z" transform="translate(126.918 32.491)" fill="#fff"/>
        <path id="Path_7" data-name="Path 7" d="M67,104.38H57.522a9.7,9.7,0,0,1-9.7-9.7V33.146a9.7,9.7,0,1,1,19.392,0V104.16A.22.22,0,0,1,67,104.38Z" transform="translate(105.919 21.318)" fill="#fff"/>
        <path id="Path_8" data-name="Path 8" d="M13.368,24.034a6.217,6.217,0,0,0-2.1,3.338A7.925,7.925,0,0,1,13.368,24.034Z" transform="translate(23.158 22.641)" fill="#fff"/>
        <path id="Path_9" data-name="Path 9" d="M11.159,27.439V28.1a11.677,11.677,0,0,1,.368-3.039A7.79,7.79,0,0,0,11.159,27.439Z" transform="translate(22.906 24.957)" fill="#fff"/>
        <path id="Path_10" data-name="Path 10" d="M45.848,85.948a17.758,17.758,0,0,1-6.137,1.019,18.644,18.644,0,0,1-3.319-.294A6.715,6.715,0,0,1,33.505,85.4,7.534,7.534,0,0,1,31.4,82.816a9.586,9.586,0,0,1-.843-4.4V59.512h21.76V52.6A11.322,11.322,0,0,0,40.99,41.277H30.559V31.493a0,0,0,0,1,0,0v-.23a7.869,7.869,0,0,0-3.269-6.392,7.962,7.962,0,0,0-4.054-1.426c-.632-.049-1.279-.074-1.951-.074a12.669,12.669,0,0,0-7.348,1.927c-.108.073-.206.166-.309.245a7.928,7.928,0,0,0-2.1,3.338,11.5,11.5,0,0,0-.368,3.039V82.62q0,10,6.382,15.966a20.971,20.971,0,0,0,8.647,4.789,32.6,32.6,0,0,0,9.064,1.171,35.92,35.92,0,0,0,7.593-.784,47.431,47.431,0,0,0,6.5-1.868,32.194,32.194,0,0,0,4.941-2.289,19.792,19.792,0,0,0,3.132-2.167Z" transform="translate(22.903 21.128)" fill="#fff"/>
      </g>
    </g>
  </g>
</svg>
