<svg id="Group_207" data-name="Group 207" xmlns="http://www.w3.org/2000/svg" width="26.024" height="26.024" viewBox="0 0 26.024 26.024">
  <path id="Path_133" data-name="Path 133" d="M-2449.968,989.012a13.012,13.012,0,0,1-13.012,13.012h0a13.012,13.012,0,0,1-13.012-13.012h0A13.012,13.012,0,0,1-2462.98,976h0a13.012,13.012,0,0,1,13.012,13.012Z" transform="translate(2475.992 -976)" fill="#3d70b2"/>
  <path id="Path_134" data-name="Path 134" d="M-2347.341,1051.534l-.217,1.741a.58.58,0,0,1-.575.51h-2.82v7.278q-.446.04-.9.04a10.07,10.07,0,0,1-1.989-.2v-7.121h-2.168a.363.363,0,0,1-.362-.363v-2.178a.363.363,0,0,1,.362-.363h2.168v-3.267a3.622,3.622,0,0,1,3.615-3.63h2.53a.363.363,0,0,1,.361.363v2.178a.363.363,0,0,1-.361.363h-1.808a1.449,1.449,0,0,0-1.446,1.452v2.541h3.036A.581.581,0,0,1-2347.341,1051.534Z" transform="translate(2364.208 -1039.531)" fill="#fff"/>
</svg>
