<svg id="Group_208" data-name="Group 208" xmlns="http://www.w3.org/2000/svg" width="26.024" height="26.024" viewBox="0 0 26.024 26.024">
  <path id="Path_135" data-name="Path 135" d="M-1508.148,989.012a13.012,13.012,0,0,1-13.012,13.012h0a13.012,13.012,0,0,1-13.012-13.012h0A13.012,13.012,0,0,1-1521.161,976h0a13.012,13.012,0,0,1,13.012,13.012Z" transform="translate(1534.173 -976)" fill="#3d70b2"/>
  <path id="Path_136" data-name="Path 136" d="M-1429.353,1070.463h-7.061a3.3,3.3,0,0,0-3.295,3.295v7.061a3.3,3.3,0,0,0,3.295,3.3h7.061a3.3,3.3,0,0,0,3.3-3.3v-7.061A3.3,3.3,0,0,0-1429.353,1070.463Zm2.118,10.12a2.354,2.354,0,0,1-2.354,2.354h-6.59a2.354,2.354,0,0,1-2.354-2.354v-6.59a2.354,2.354,0,0,1,2.354-2.354h6.59a2.354,2.354,0,0,1,2.354,2.354Z" transform="translate(1445.896 -1064.276)" fill="#fff"/>
  <path id="Path_137" data-name="Path 137" d="M-1385.768,1120.772a3.532,3.532,0,0,0-3.53,3.53,3.532,3.532,0,0,0,3.53,3.53,3.532,3.532,0,0,0,3.53-3.53A3.532,3.532,0,0,0-1385.768,1120.772Zm0,5.884a2.357,2.357,0,0,1-2.354-2.354,2.357,2.357,0,0,1,2.354-2.354,2.357,2.357,0,0,1,2.354,2.354A2.357,2.357,0,0,1-1385.768,1126.656Z" transform="translate(1398.786 -1111.29)" fill="#fff"/>
  <circle id="Ellipse_15" data-name="Ellipse 15" cx="0.706" cy="0.706" r="0.706" transform="translate(16.079 8.54)" fill="#fff"/>
</svg>
