<svg id="Group_206" data-name="Group 206" xmlns="http://www.w3.org/2000/svg" width="26.024" height="26.024" viewBox="0 0 26.024 26.024">
  <path id="Path_131" data-name="Path 131" d="M-566.33,989.012a13.012,13.012,0,0,1-13.012,13.012h0a13.012,13.012,0,0,1-13.012-13.012h0A13.012,13.012,0,0,1-579.342,976h0a13.012,13.012,0,0,1,13.012,13.012Z" transform="translate(592.354 -976)" fill="#3d70b2"/>
  <path id="Path_132" data-name="Path 132" d="M-479.415,1071.314v-6.448s.727,1.211,3.355,1.286a.251.251,0,0,0,.256-.251v-1.822a.253.253,0,0,0-.244-.251,3.21,3.21,0,0,1-3.1-3.112.256.256,0,0,0-.258-.234h-2.078a.251.251,0,0,0-.251.251v10.249a2.112,2.112,0,0,1-1.963,2.135,2.064,2.064,0,0,1-2.148-2.32,2.071,2.071,0,0,1,1.751-1.783,2.116,2.116,0,0,1,.528-.008.252.252,0,0,0,.284-.248v-1.827a.249.249,0,0,0-.229-.25,4.5,4.5,0,0,0-.8.02,4.4,4.4,0,0,0-3.845,3.855,4.386,4.386,0,0,0,4.357,4.885,4.384,4.384,0,0,0,4.384-4.384" transform="translate(495.007 -1054.949)" fill="#fff"/>
</svg>
