<svg id="Group_210" data-name="Group 210" xmlns="http://www.w3.org/2000/svg" width="26.025" height="26.024" viewBox="0 0 26.025 26.024">
  <path id="Path_140" data-name="Path 140" d="M-1979.058,989.012a13.012,13.012,0,0,1-13.012,13.012h0a13.012,13.012,0,0,1-13.012-13.012h0A13.012,13.012,0,0,1-1992.071,976h0a13.012,13.012,0,0,1,13.012,13.012Z" transform="translate(2005.083 -976)" fill="#3d70b2"/>
  <path id="Path_141" data-name="Path 141" d="M-1913.253,1076.093l5.264-5.63h-2l-4.132,4.419-3.164-4.419h-5.467l5.535,7.731-5.535,5.92h2l4.4-4.709,3.371,4.709h5.467Zm-6.681-4.182h1.906l7.7,10.755h-1.906Z" transform="translate(1928.143 -1064.276)" fill="#fff"/>
</svg>
