<svg id="Group_209" data-name="Group 209" xmlns="http://www.w3.org/2000/svg" width="26.025" height="26.024" viewBox="0 0 26.025 26.024">
  <path id="Path_138" data-name="Path 138" d="M-1037.24,989.012a13.012,13.012,0,0,1-13.012,13.012h0a13.012,13.012,0,0,1-13.012-13.012h0A13.012,13.012,0,0,1-1050.252,976h0a13.012,13.012,0,0,1,13.012,13.012Z" transform="translate(1063.264 -976)" fill="#3d70b2"/>
  <path id="Path_139" data-name="Path 139" d="M-967.619,1090.495h-11.215a2.007,2.007,0,0,0-2.007,2.006v7.015a2.006,2.006,0,0,0,2.007,2.006h11.215a2.006,2.006,0,0,0,2.006-2.006V1092.5A2.007,2.007,0,0,0-967.619,1090.495Zm-3.806,6-3.119,1.559a.541.541,0,0,1-.784-.484v-3.118a.542.542,0,0,1,.784-.484l3.119,1.559A.541.541,0,0,1-971.425,1096.492Z" transform="translate(986.239 -1082.996)" fill="#fff"/>
</svg>
