<svg xmlns="http://www.w3.org/2000/svg" width="170.969" height="170.969" viewBox="0 0 170.969 170.969">
  <g id="Group_14" data-name="Group 14" transform="translate(-1038 -678.905)">
    <g id="idea" transform="translate(1038 678.905)">
      <path id="Path_36" data-name="Path 36" d="M-183.016,531.469a85.431,85.431,0,0,0,85.485-85.484A85.431,85.431,0,0,0-183.016,360.5,85.431,85.431,0,0,0-268.5,445.985,85.431,85.431,0,0,0-183.016,531.469Z" transform="translate(268.5 -360.5)" fill="#ffefca"/>
    </g>
    <g id="Group_8" data-name="Group 8" transform="translate(1072.863 721.274)">
      <path id="Path_80" data-name="Path 80" d="M225.036,98.346a13.614,13.614,0,0,1-1.232,2.96,14.663,14.663,0,0,1-2.977,3.089,1.206,1.206,0,0,0-.536,1.654c1.435,4.2,2.826,8.418,4.231,12.63.1.309.2.62.343,1.057L219.26,121.6l-3.025-8.981-.214-.016-3.029,8.994-5.62-1.865,3.71-11.118c.333-1,.708-1.986.975-3a1.055,1.055,0,0,0-.3-.93,8.855,8.855,0,0,1,1.093-15.948,2.212,2.212,0,0,0,.262-.161V60.326c-.4.152-.735.271-1.062.4Q193.7,68.044,175.343,75.371a2.317,2.317,0,0,1-1.88.051Q149.032,65.6,124.582,55.831c-.212-.085-.417-.186-.789-.353.356-.179.586-.316.832-.415q24.443-9.79,48.9-19.549a2.459,2.459,0,0,1,1.66.007q24.415,9.727,48.8,19.519c.26.1.511.23.961.433L219.1,57.908v.978c0,9.585.01,19.17-.019,28.754a1.291,1.291,0,0,0,.888,1.387A8.48,8.48,0,0,1,224.7,94.66c.105.375.227.745.341,1.117Z" transform="translate(-123.793 -35.374)" fill="#fccd7a"/>
      <path id="Path_81" data-name="Path 81" d="M220.157,181.235c.607.234,1.186.449,1.759.679q12.061,4.831,24.13,9.642a2.314,2.314,0,0,0,1.555.006q12.354-4.9,24.68-9.863c.391-.156.787-.3,1.176-.448,0,3.018.234,5.994-.057,8.918-.39,3.909-3.012,6.472-6.151,8.509A32.217,32.217,0,0,1,253.6,203.29a46.514,46.514,0,0,1-21.578-1.9,20.386,20.386,0,0,1-9.637-6.29,9.021,9.021,0,0,1-2.2-5.3C220.08,186.976,220.157,184.147,220.157,181.235Z" transform="translate(-196.283 -145.129)" fill="#ffe1a6"/>
    </g>
  </g>
</svg>
