<svg xmlns="http://www.w3.org/2000/svg" width="170.969" height="170.969" viewBox="0 0 170.969 170.969">
  <g id="Group_11" data-name="Group 11" transform="translate(-787.94 -182)">
    <g id="Group_5" data-name="Group 5" transform="translate(787.94 182)">
      <g id="idea">
        <path id="Path_36" data-name="Path 36" d="M-183.016,531.469a85.431,85.431,0,0,0,85.485-85.484A85.431,85.431,0,0,0-183.016,360.5,85.431,85.431,0,0,0-268.5,445.985,85.431,85.431,0,0,0-183.016,531.469Z" transform="translate(268.5 -360.5)" fill="#ffefca"/>
      </g>
      <g id="Group_4" data-name="Group 4" transform="translate(30.352 31.078)">
        <path id="Path_61" data-name="Path 61" d="M-358.258-35.651c-.123.291-.251.579-.369.872a5.387,5.387,0,0,1-4.8,3.615,5.251,5.251,0,0,1-5.287-2.83,1.449,1.449,0,0,0-1.49-.86q-19.512.026-39.024.012H-410.6v-3.775h1.28q19.512,0,39.025.015a1.522,1.522,0,0,0,1.585-.885,5.241,5.241,0,0,1,5.29-2.822,5.382,5.382,0,0,1,4.792,3.623c.118.294.243.584.365.876Z" transform="translate(468.522 91.008)" fill="#ffe1a6"/>
        <path id="Path_62" data-name="Path 62" d="M-557.469-201.834c0,2.265.005,4.53,0,6.8-.006,1.83-.506,2.39-2.3,2.554-12.9,1.181-22.715,7.3-28.993,18.641-11.5,20.777.993,47.308,24.284,51.793,1.654.318,3.344.454,5.019.657,1.325.161,1.967.762,1.974,2.089q.039,7.28,0,14.561a1.93,1.93,0,0,1-2.3,2.078c-.825-.05-1.653-.09-2.473-.188a3.32,3.32,0,0,1-3.207-2.96c-.38-2.047-.719-4.1-1-6.167a1.207,1.207,0,0,0-1.111-1.176,42.323,42.323,0,0,1-13.748-5.714,1.117,1.117,0,0,0-1.509.036c-1.637,1.23-3.313,2.41-4.988,3.588-1.694,1.191-3.184,1.178-4.685-.242-2.215-2.1-4.385-4.249-6.467-6.478-1.368-1.465-1.347-2.962-.189-4.606,1.2-1.7,2.405-3.4,3.649-5.076a1,1,0,0,0,.044-1.336,42.549,42.549,0,0,1-5.8-13.945,1.122,1.122,0,0,0-1.122-1.013c-2.027-.278-4.041-.653-6.057-1a3.275,3.275,0,0,1-3.06-3.221q-.154-4.786-.007-9.58a3.249,3.249,0,0,1,3.065-3.205c2.09-.349,4.185-.672,6.265-1.072a1.238,1.238,0,0,0,.815-.738,46.546,46.546,0,0,1,5.921-14.258,1.356,1.356,0,0,0-.1-1.195c-1.166-1.726-2.415-3.4-3.616-5.1-1.156-1.64-1.183-3.136.192-4.608,2.131-2.281,4.35-4.486,6.629-6.619a3.2,3.2,0,0,1,4.432-.168c1.737,1.215,3.465,2.445,5.163,3.713a.994.994,0,0,0,1.331.042,42.214,42.214,0,0,1,14.047-5.824,1.024,1.024,0,0,0,.886-1.016c.283-1.918.6-3.831.906-5.747.385-2.435,1.475-3.418,3.95-3.559.538-.031,1.076-.072,1.614-.112,1.754-.129,2.534.581,2.544,2.364C-557.458-206.508-557.469-204.171-557.469-201.834Z" transform="translate(611.584 211.224)" fill="#fccd7a"/>
        <path id="Path_63" data-name="Path 63" d="M-493.29-92.047v24.908c0,2.887-.434,3.275-3.284,2.935a28,28,0,0,1-23.893-20.716,28.062,28.062,0,0,1,23.848-35.029c.357-.041.712-.1,1.07-.131a1.826,1.826,0,0,1,2.252,2.046c.025,2.48.008,4.96.008,7.44Z" transform="translate(547.404 146.358)" fill="#fccd7a"/>
        <path id="Path_64" data-name="Path 64" d="M-380.741-128.875c-2.489-1.165-3.891-3-3.712-5.787a5.528,5.528,0,0,1,4.733-5.117,5.575,5.575,0,0,1,6.156,3.792,5.462,5.462,0,0,1-2.522,6.575,1.567,1.567,0,0,0-.96,1.65q.073,4.312,0,8.626a5.464,5.464,0,0,1-5.5,5.483c-9.2.032-18.4.012-27.6.011-.141,0-.281-.027-.495-.049v-3.661h27.218c2.11,0,2.675-.569,2.676-2.69Q-380.739-124.462-380.741-128.875Z" transform="translate(468.55 160.406)" fill="#fccd7a"/>
        <path id="Path_65" data-name="Path 65" d="M-410.723,6.881V3.219c.393-.019.741-.05,1.089-.05q13.209,0,26.417,0c3.891,0,6.12,2.253,6.127,6.175,0,2.732.013,5.463-.008,8.195a1.163,1.163,0,0,0,.7,1.253,5.543,5.543,0,0,1,2.9,6.346,5.6,5.6,0,0,1-5.456,4.221,5.6,5.6,0,0,1-5.447-4.235,5.559,5.559,0,0,1,2.921-6.343,1.088,1.088,0,0,0,.686-1.149c-.026-2.8,0-5.607-.015-8.41-.007-1.67-.685-2.336-2.38-2.337q-13.1-.007-26.2,0Z" transform="translate(468.613 58.623)" fill="#fccd7a"/>
        <path id="Path_66" data-name="Path 66" d="M-410.786,58.772V55.085a8.2,8.2,0,0,1,.82-.082c2.73-.006,5.46-.017,8.19,0a5.6,5.6,0,0,1,5.917,5.869c.037,3.448.021,6.9,0,10.345a1.254,1.254,0,0,0,.753,1.341,5.52,5.52,0,0,1,2.829,6.369,5.6,5.6,0,0,1-5.49,4.17,5.564,5.564,0,0,1-5.4-4.28,5.525,5.525,0,0,1,2.863-6.264,1.169,1.169,0,0,0,.726-1.234c-.024-3.376-.009-6.753-.013-10.129,0-1.795-.6-2.409-2.373-2.415C-404.868,58.765-407.772,58.772-410.786,58.772Z" transform="translate(468.658 21.732)" fill="#fccd7a"/>
        <path id="Path_67" data-name="Path 67" d="M-410.764-170.185v-3.684c.408-.021.786-.057,1.164-.058,2.517-.005,5.034.007,7.55-.006,1.859-.009,2.471-.623,2.474-2.448,0-3.344-.014-6.687.015-10.031a1.249,1.249,0,0,0-.743-1.336,5.519,5.519,0,0,1-2.841-6.278,5.56,5.56,0,0,1,5.425-4.253,5.6,5.6,0,0,1,5.441,4.1,5.532,5.532,0,0,1-2.857,6.457,1.19,1.19,0,0,0-.708,1.261c.018,3.308.013,6.616.008,9.923-.007,4.112-2.234,6.349-6.317,6.352C-404.987-170.184-407.821-170.185-410.764-170.185Z" transform="translate(468.642 202.011)" fill="#fccd7a"/>
        <path id="Path_68" data-name="Path 68" d="M-410.694-84.192v-3.732h1q8.506,0,17.012.008a4,4,0,0,1,1.369.193,1.675,1.675,0,0,1,1.123,1.776,1.7,1.7,0,0,1-1.28,1.669,3.242,3.242,0,0,1-.954.131q-8.829.011-17.658,0C-410.261-84.144-410.435-84.171-410.694-84.192Z" transform="translate(468.592 123.461)" fill="#ffe1a6"/>
        <path id="Path_69" data-name="Path 69" d="M-410.772,32.771V29.125c.394-.019.773-.052,1.151-.053q8.414,0,16.827,0c.463,0,1.065-.077,1.357.171a2.8,2.8,0,0,1,1.111,1.634c.019.568-.549,1.22-1,1.71-.21.231-.74.231-1.126.232q-8.9.019-17.8,0C-410.384,32.828-410.522,32.8-410.772,32.771Z" transform="translate(468.648 40.188)" fill="#ffe1a6"/>
      </g>
    </g>
  </g>
</svg>
