<svg xmlns="http://www.w3.org/2000/svg" width="170.969" height="170.969" viewBox="0 0 170.969 170.969">
  <g id="Group_12" data-name="Group 12" transform="translate(-973.156 -182)">
    <g id="clover" transform="translate(973.156 182)">
      <path id="Path_22" data-name="Path 22" d="M85.484,170.969A85.484,85.484,0,1,0,0,85.484,85.485,85.485,0,0,0,85.484,170.969Z" fill="#d5f6e4"/>
      <path id="Path_23" data-name="Path 23" d="M51.57,38.573s-3.493,21.955-7.352,31.368a43.153,43.153,0,0,1-9.413,14.475s-7,1.209-10.132-2.413c0,0,9.408-9,13.756-17.638a69.132,69.132,0,0,0,7.109-25.793Z" transform="translate(33.915 53.021)" fill="#3ec17b"/>
      <path id="Path_24" data-name="Path 24" d="M77.241,63.747s18.871,3.106,22.516,16.107S97.841,97.043,85.866,96.119c0,0-5.058,12.934-14.2,9.356s-12.531-20.547-12.324-29.5c-3.949,8.038-14.8,21.506-24.565,20.452S26.5,81.561,26.5,81.561c-11.042-4.721-14.038-11.006-4.79-20.844s27.407-3.866,27.407-3.866S30.258,53.745,26.611,40.742s1.912-17.187,13.884-16.266c0,0,5.06-12.934,14.207-9.351s12.533,20.547,12.319,29.5c3.956-8.036,14.81-21.506,24.577-20.455s8.264,14.867,8.264,14.867c11.042,4.721,14.041,11,4.79,20.846s-27.407,3.866-27.407,3.866Z" transform="translate(22.301 19.928)" fill="#92e3b8"/>
    </g>
  </g>
</svg>
