<svg xmlns="http://www.w3.org/2000/svg" width="170.969" height="170.969" viewBox="0 0 170.969 170.969">
  <g id="Group_10" data-name="Group 10" transform="translate(-571.854 -182)">
    <g id="friends" transform="translate(571.854 182)">
      <path id="Path_28" data-name="Path 28" d="M-183.516,531.969a85.431,85.431,0,0,0,85.484-85.484A85.431,85.431,0,0,0-183.516,361,85.431,85.431,0,0,0-269,446.484,85.431,85.431,0,0,0-183.516,531.969Z" transform="translate(269 -361)" fill="#fce5eb"/>
      <path id="Path_29" data-name="Path 29" d="M-195.6,379.338a19.492,19.492,0,0,0-11.4,4.274,1.781,1.781,0,0,1-2.137,0c-4.037-3.087-7.836-4.512-11.4-4.512-6.411,0-11.16,4.512-12.348,11.4-2.137,10.923,4.749,25.645,24.933,33.482,14.485-5.936,27.782-18.522,24.933-33.482-1.425-6.886-6.174-11.16-12.585-11.16Z" transform="translate(318.131 -336.12)" fill="#ef7398"/>
      <path id="Path_30" data-name="Path 30" d="M-241.652,438.576v12.11A6.637,6.637,0,0,0-235,457.335h11.16a6.923,6.923,0,0,1,6.886,5.224l2.849,11.161H-183c-.475-2.375-1.425-6.174-2.375-10.686-1.662-9.736-2.375-17.809-1.9-23.746a43.643,43.643,0,0,1,2.849-9.973c-19-9.023-25.408-24.221-23.271-35.856,1.187-6.886,5.461-11.635,10.923-13.535a29.026,29.026,0,0,0-13.3-3.324H-211.5a35.428,35.428,0,0,0-35.381,33.481v8.311L-254,436.914h10.923A1.588,1.588,0,0,1-241.652,438.576Z" transform="translate(289.618 -339.557)" fill="#f7b7ca"/>
    </g>
  </g>
</svg>
