<svg id="house" xmlns="http://www.w3.org/2000/svg" width="170.969" height="170.969" viewBox="0 0 170.969 170.969">
  <path id="Path_31" data-name="Path 31" d="M85.484,170.969A85.484,85.484,0,1,0,0,85.484,85.485,85.485,0,0,0,85.484,170.969Z" fill="#f1e7fc"/>
  <path id="Path_32" data-name="Path 32" d="M61.419,114.041H95.877a9.534,9.534,0,0,0,9.527-9.532V58.894c0-5.26-43.982-41.759-43.982-41.759s-43.987,36.5-43.987,41.759V104.51a9.534,9.534,0,0,0,9.527,9.532Z" transform="translate(23.966 23.553)" fill="#dbbef8"/>
  <path id="Path_33" data-name="Path 33" d="M65.414,25.154l42.98,37.663,4.094,3.543s1.665-1.548,2.175-2.13c1.562-1.767,1.562-5.2,1.562-5.2L65.414,14.5,14.6,59.025s0,3.438,1.565,5.2c.511.584,2.173,2.13,2.173,2.13l4.094-3.543Zm43.721,84.6a2.418,2.418,0,0,1-.019-.259c-.746-6.426-7.591-8.833-18.59-8.833S72.688,103.07,71.937,109.5a52.387,52.387,0,0,0-.05,8.169H99.772a9.513,9.513,0,0,0,9.363-7.91Z" transform="translate(20.07 19.93)" fill="#b981f1"/>
  <path id="Path_34" data-name="Path 34" d="M101.125,50.239A14.574,14.574,0,1,1,86.55,35.64a14.58,14.58,0,0,1,14.575,14.6Zm-46.461,30.2c-.743-6.426-7.587-8.833-18.583-8.833s-17.843,2.408-18.588,8.833v.012a9.5,9.5,0,0,0,9.387,8.159H54.714a52.125,52.125,0,0,0-.05-8.171Zm-4.008-30.2a14.574,14.574,0,1,1-14.575-14.6,14.587,14.587,0,0,1,14.575,14.6Z" transform="translate(24.045 48.99)" fill="#b981f1"/>
  <path id="Path_35" data-name="Path 35" d="M61.682,47.553a14.575,14.575,0,1,1-14.573-14.6,14.59,14.59,0,0,1,14.573,14.6ZM29.234,92.293c-.5-2.745-1.135-10.9-.705-14.542.746-6.418,7.591-8.843,18.583-8.843S64.945,71.332,65.7,77.751c.423,3.643-.211,11.8-.71,14.542Z" transform="translate(39.018 45.302)" fill="#f1e7fc"/>
</svg>
