<svg xmlns="http://www.w3.org/2000/svg" width="170" height="171" viewBox="0 0 170 171">
  <g id="news" transform="translate(-0.486 -0.095)">
    <ellipse id="Ellipse_2" data-name="Ellipse 2" cx="85" cy="85.5" rx="85" ry="85.5" transform="translate(0.486 0.095)" fill="#cb9fff"/>
    <path id="Path_40" data-name="Path 40" d="M-164.642,421.729A45.857,45.857,0,0,0-210.471,375.9,45.857,45.857,0,0,0-256.3,421.729a46.982,46.982,0,0,0,6.174,23.033l-5.7,21.371,20.9-5.7a45.383,45.383,0,0,0,24.458,7.124,45.857,45.857,0,0,0,45.829-45.829Z" transform="translate(286.883 -340.519)" fill="#f7f7f7"/>
    <path id="Path_41" data-name="Path 41" d="M-193.832,386.2a52.976,52.976,0,0,1,4.512,21.371A51.965,51.965,0,0,1-234.2,458.862a42.079,42.079,0,0,0,16.385,3.324,41.622,41.622,0,0,0,22.321-6.411l19,4.987-5.224-19.471a41.737,41.737,0,0,0,5.7-20.9A41.215,41.215,0,0,0-193.832,386.2Z" transform="translate(317.261 -326.361)" fill="#b27efc"/>
    <path id="Path_79" data-name="Path 79" d="M0,16.6A15.309,15.309,0,0,1,2.371,8.927,19.454,19.454,0,0,1,9.345,2.511,22.21,22.21,0,0,1,20.086,0,23.723,23.723,0,0,1,30.268,2.092,17.308,17.308,0,0,1,37.1,7.811a14.383,14.383,0,0,1,2.371,7.951,11.389,11.389,0,0,1-1.395,5.858,17.444,17.444,0,0,1-3.208,4.324c-1.255,1.255-3.487,3.348-6.7,6.137a29.165,29.165,0,0,0-2.092,2.092,6.556,6.556,0,0,0-1.255,1.674,6.8,6.8,0,0,0-.558,1.534c-.139.558-.418,1.395-.7,2.65-.558,2.79-2.092,4.045-4.742,4.045a4.626,4.626,0,0,1-3.487-1.395c-.976-.837-1.395-2.232-1.395-4.045a14.017,14.017,0,0,1,.976-5.719,12.816,12.816,0,0,1,2.79-4.324,49.09,49.09,0,0,1,4.6-4.324c1.674-1.534,2.929-2.65,3.627-3.348A12.025,12.025,0,0,0,27.9,18.412a5.972,5.972,0,0,0,.837-3.069,6.985,6.985,0,0,0-2.371-5.3,8.827,8.827,0,0,0-6-2.232c-2.929,0-5.021.7-6.416,2.232a17.2,17.2,0,0,0-3.487,6.416c-.837,2.929-2.65,4.463-5.161,4.463a5.151,5.151,0,0,1-3.766-1.534A2.912,2.912,0,0,1,0,16.6Zm19.388,43.24A6.174,6.174,0,0,1,15.2,58.3a5.216,5.216,0,0,1-1.813-4.324A5.677,5.677,0,0,1,15.064,49.8a6,6,0,0,1,4.324-1.674,5.721,5.721,0,0,1,5.858,5.858A5.216,5.216,0,0,1,23.433,58.3,5.458,5.458,0,0,1,19.388,59.839Z" transform="translate(81.765 47.194) rotate(42)" fill="#b27efc"/>
  </g>
</svg>
