<svg id="Group_7" data-name="Group 7" xmlns="http://www.w3.org/2000/svg" width="170.969" height="170.969" viewBox="0 0 170.969 170.969">
  <g id="chrono">
    <path id="Path_13" data-name="Path 13" d="M85.484,170.969A85.484,85.484,0,1,0,0,85.484,85.485,85.485,0,0,0,85.484,170.969Z" fill="#d7f1f8"/>
  </g>
  <g id="Group_6" data-name="Group 6" transform="translate(35.159 35.215)">
    <path id="Path_73" data-name="Path 73" d="M121,34.732h5.9a5.55,5.55,0,0,0,.76.161,49.037,49.037,0,0,1,16.364,4.165c10.372,4.6,15.847,14.2,14.349,25.2a23.38,23.38,0,0,1-21.981,19.7,23.676,23.676,0,0,1-11.134-2.285,2.3,2.3,0,0,0-3.033.411,2.421,2.421,0,0,0-.127,2.837,21.824,21.824,0,0,1,2,13.36c-1.694,9.667-7.227,16.3-16.7,18.958-9.635,2.707-17.993-.063-24.416-7.715-4.2-5-5.961-11.185-7.167-17.492-.384-2.009-.545-4.061-.808-6.093V81.035a6.994,6.994,0,0,0,.161-.844,47.519,47.519,0,0,1,10-26.34A48.026,48.026,0,0,1,115.476,35.5C117.3,35.166,119.158,34.984,121,34.732Zm9.671,33.193a8.816,8.816,0,1,0,.027-17.633,8.816,8.816,0,1,0-.027,17.633Zm-25.212-11.6A8.823,8.823,0,1,0,114.3,65.1,8.84,8.84,0,0,0,105.459,56.32Zm-6,42.812a8.813,8.813,0,1,0-.093-17.626,8.813,8.813,0,1,0,.093,17.626Z" transform="translate(-75 -34.732)" fill="#48b0cb"/>
    <path id="Path_74" data-name="Path 74" d="M366.3,215.135c-.463,2.945-2.311,5-4.345,7.007-5.121,5.052-10.163,10.183-15.239,15.281-.246.247-.5.483-.844.806a19.827,19.827,0,0,0-4.758-7.661,19.629,19.629,0,0,0-7.743-4.735c.273-.293.479-.527.7-.747,5.535-5.563,11.091-11.106,16.6-16.695,2.581-2.618,5.594-3.743,9.174-2.711a8.5,8.5,0,0,1,6.315,7.138,1.916,1.916,0,0,0,.141.356Z" transform="translate(-265.651 -160.592)" fill="#98d9e9"/>
    <path id="Path_75" data-name="Path 75" d="M255.9,332.932a40.625,40.625,0,0,1-4.58-1.1,2.772,2.772,0,0,1-1.373-4.281,10.851,10.851,0,0,0,1.665-6.229,46.851,46.851,0,0,1,.515-8.179,13.6,13.6,0,0,1,13.629-10.521,13.321,13.321,0,0,1,12.9,10.73c1.137,5.631-.78,10.266-5.295,13.742C268.5,330.838,262.894,332.633,255.9,332.932Z" transform="translate(-203.694 -232.402)" fill="#48b0cb"/>
    <path id="Path_76" data-name="Path 76" d="M282.055,119.543a2.9,2.9,0,0,1-2.983,2.861,2.956,2.956,0,0,1-2.9-2.976,3.027,3.027,0,0,1,3.01-2.891A2.959,2.959,0,0,1,282.055,119.543Z" transform="translate(-223.444 -95.095)" fill="#98d9e9"/>
    <path id="Path_77" data-name="Path 77" d="M185.854,142.476a2.994,2.994,0,0,1-2.941,2.948,2.938,2.938,0,1,1,2.941-2.948Z" transform="translate(-152.456 -112.075)" fill="#98d9e9"/>
    <path id="Path_78" data-name="Path 78" d="M162.76,238.57a2.9,2.9,0,0,1-2.932,2.915,2.959,2.959,0,0,1-2.952-2.923,3.019,3.019,0,0,1,2.958-2.939A2.957,2.957,0,0,1,162.76,238.57Z" transform="translate(-135.415 -182.968)" fill="#98d9e9"/>
  </g>
</svg>
