<svg id="tag-euro" xmlns="http://www.w3.org/2000/svg" width="170.959" height="170.959" viewBox="0 0 170.959 170.959">
  <path id="Path_53" data-name="Path 53" d="M85.48,170.959A85.48,85.48,0,1,0,0,85.48,85.48,85.48,0,0,0,85.48,170.959Z" fill="#d3f4ed"/>
  <path id="Path_54" data-name="Path 54" d="M16.49,47.832c-.544,3.372,1,6.962,5.431,13.689,3.362,5.108,12.438,19.305,15,19.716l67.9,11.023a4.7,4.7,0,0,0,5.383-3.88l4.006-24.686,4.008-24.688a4.7,4.7,0,0,0-3.878-5.383L46.431,22.607c-2.555-.416-15.651,10.18-20.464,13.962C19.636,41.546,17.04,44.467,16.49,47.832Z" transform="translate(22.522 31.058)" fill="#39bca1"/>
  <path id="Path_55" data-name="Path 55" d="M11.662,49.733c0,3.412,2.094,6.713,7.549,12.642,4.139,4.5,15.375,17.061,17.964,17.061h68.789a4.7,4.7,0,0,0,4.692-4.695V24.729a4.692,4.692,0,0,0-4.692-4.692H37.174c-2.588,0-13.825,12.554-17.964,17.059C13.756,43.025,11.662,46.323,11.662,49.733Z" transform="translate(16.03 27.542)" fill="#8edfcf"/>
  <path id="Path_56" data-name="Path 56" d="M22.573,43.918a7.2,7.2,0,1,0-7.2-7.2A7.2,7.2,0,0,0,22.573,43.918Z" transform="translate(21.126 40.562)" fill="#39bca1"/>
  <path id="Path_57" data-name="Path 57" d="M59.25,27.438S52.373,25.206,45.9,27.17c-5.651,1.71-10.985,6.924-11.151,15.53C34.4,61.164,53.929,60.105,62.8,55.84M27.666,39.157H51.977M27.666,46.4H51.977" transform="translate(38.029 36.236)" fill="none" stroke="#39bca1" stroke-linecap="round" stroke-linejoin="round" stroke-miterlimit="10" stroke-width="1.969"/>
</svg>
