<svg xmlns="http://www.w3.org/2000/svg" width="170.969" height="170.969" viewBox="0 0 170.969 170.969">
  <g id="Group_13" data-name="Group 13" transform="translate(-648.571 -690.777)">
    <g id="friends" transform="translate(648.571 690.777)">
      <path id="Path_28" data-name="Path 28" d="M-183.516,531.969a85.431,85.431,0,0,0,85.484-85.484A85.431,85.431,0,0,0-183.516,361,85.431,85.431,0,0,0-269,446.484,85.431,85.431,0,0,0-183.516,531.969Z" transform="translate(269 -361)" fill="#fce5eb"/>
    </g>
    <g id="Group_9" data-name="Group 9" transform="translate(687.772 728.09)">
      <path id="Path_82" data-name="Path 82" d="M206.962,266.417v-1.506q0-3.234,0-6.468c0-1.489.453-1.955,1.9-1.957q6.1-.007,12.2,0c1.36,0,1.846.478,1.851,1.821.01,2.31,0,4.621,0,6.93v1.137c1.179,0,2.275.034,3.366-.039.156-.01.4-.534.4-.822.028-3.419.018-6.838.018-10.257,0-1.509-.013-3.019.005-4.528.015-1.232.525-1.757,1.743-1.76q6.236-.018,12.472,0c1.21,0,1.737.549,1.739,1.768q.011,7.254,0,14.508v1.069h3.749v-1.087q0-10.766,0-21.531c0-1.833.378-2.2,2.229-2.205q5.867,0,11.734,0c1.575,0,2.028.457,2.029,2.037q0,10.812,0,21.623v1.163h3.732v-1.088q0-16.818,0-33.636c0-1.806.417-2.219,2.237-2.219q5.82,0,11.641,0c1.675,0,2.124.453,2.124,2.153q0,16.772,0,33.544V266.4c1.183,0,2.281-.047,3.374.013a1.371,1.371,0,0,1,1.327,1.976,2.192,2.192,0,0,1-1.059.881,3.086,3.086,0,0,1-1.186.07q-39.913,0-79.826,0c-.369,0-.741.011-1.107-.026a1.448,1.448,0,0,1-.01-2.882C204.715,266.368,205.788,266.417,206.962,266.417Z" transform="translate(-201.272 -188.214)" fill="#ef7398"/>
      <path id="Path_83" data-name="Path 83" d="M252.948,206.622a120.6,120.6,0,0,0,18.675-19.443c-1.474.072-2.751.134-4.028.2-.554.028-1.106.081-1.66.09a1.485,1.485,0,1,1-.135-2.948q3.088-.185,6.178-.35,1.2-.066,2.4-.116a1.568,1.568,0,0,1,1.835,1.412q.787,4.266,1.536,8.538a1.44,1.44,0,0,1-1.129,1.885c-.871.189-1.533-.282-1.742-1.324-.344-1.712-.643-3.433-.986-5.287a5.541,5.541,0,0,0-.5.481c-10.325,13.316-23.072,23.864-37.379,32.605a164.528,164.528,0,0,1-32.7,15.489c-.145.049-.293.093-.44.138-1.135.35-1.861.043-2.147-.906-.264-.876.163-1.546,1.247-1.905a153.549,153.549,0,0,0,20.627-8.715c.245-.123.483-.258.853-.457" transform="translate(-200.653 -171.675)" fill="#f7b7ca"/>
      <path id="Path_84" data-name="Path 84" d="M252.385,206.222c-.535-1.9-1.068-3.634-1.5-5.391a2.473,2.473,0,0,0-1.61-1.835c-2.7-1.121-5.364-2.313-8.048-3.463-1.367-.586-2.2-.119-2.406,1.36-.906,6.491-1.79,12.985-2.721,19.472a1.649,1.649,0,0,1-.7,1.032c-1.39.844-2.83,1.605-4.292,2.419a2.753,2.753,0,0,1-.54-2.529c.5-3.223,1.01-6.443,1.52-9.664.567-3.586,1.184-7.165,1.675-10.761a17.336,17.336,0,0,0-.107-3.314c-.161-2.736-.35-5.47-.506-8.206a1.485,1.485,0,0,0-1.089-1.53,1.535,1.535,0,0,0-1.738.738q-3.841,5.257-7.709,10.494a6.625,6.625,0,0,1-.631.794,1.652,1.652,0,0,1-2.263.126,1.622,1.622,0,0,1-.442-2.218c.546-.855,1.172-1.658,1.769-2.479q4.183-5.751,8.369-11.5a3.011,3.011,0,0,1,3.6-.935,8.515,8.515,0,0,0,9.418-1.134c4.082-3.124,8.206-6.194,12.317-9.282a1.858,1.858,0,0,1,2.834.229,1.923,1.923,0,0,1-.61,2.736c-3.82,2.962-7.633,5.932-11.484,8.852a2.429,2.429,0,0,0-1.092,2.433c.3,2.754.552,5.514.776,8.275a2.327,2.327,0,0,0,1.342,2.028q3.2,1.742,6.334,3.608a2.058,2.058,0,0,1,.84,1.082c.556,1.854,1.051,3.728,1.5,5.611a1.206,1.206,0,0,1-.326.981C254.119,204.929,253.291,205.517,252.385,206.222Z" transform="translate(-207.353 -165.772)" fill="#f7b7ca"/>
      <path id="Path_85" data-name="Path 85" d="M243.906,175.585a5.513,5.513,0,1,1,5.53-5.437A5.34,5.34,0,0,1,243.906,175.585Z" transform="translate(-214.51 -164.562)" fill="#f7b7ca"/>
    </g>
  </g>
</svg>
